<?xml version="1.0" encoding="utf-8"?>
<svg version="1.1" xmlns:xlink="http://www.w3.org/1999/xlink" width="9px" height="14px" xmlns="http://www.w3.org/2000/svg">
  <g transform="matrix(1 0 0 1 -392 -247 )">
    <path d="M 8.84536082474227 0.841683366733466  C 8.94845360824742 0.935203740814962  9 1.04275217100868  9 1.16432865731463  C 9 1.28590514362057  8.94845360824742 1.39345357381429  8.84536082474227 1.48697394789579  L 2.7680412371134 7  L 8.84536082474227 12.5130260521042  C 8.94845360824742 12.6065464261857  9 12.7140948563794  9 12.8356713426854  C 9 12.9572478289913  8.94845360824742 13.064796259185  8.84536082474227 13.1583166332665  L 8.07216494845361 13.8597194388778  C 7.96907216494845 13.9532398129593  7.85051546391753 14  7.71649484536082 14  C 7.58247422680413 14  7.4639175257732 13.9532398129593  7.36082474226804 13.8597194388778  L 0.154639175257732 7.32264529058116  C 0.0515463917525774 7.22912491649967  0 7.12157648630594  0 7  C 0 6.87842351369405  0.0515463917525774 6.77087508350033  0.154639175257732 6.67735470941884  L 7.36082474226804 0.140280561122245  C 7.4639175257732 0.0467601870407477  7.58247422680413 0  7.71649484536082 0  C 7.85051546391753 0  7.96907216494845 0.0467601870407477  8.07216494845361 0.140280561122245  L 8.84536082474227 0.841683366733466  Z " fill-rule="nonzero" fill="#aaaaaa" stroke="none" transform="matrix(1 0 0 1 392 247 )" />
  </g>
</svg>