<?xml version="1.0" encoding="utf-8"?>
<svg version="1.1" xmlns:xlink="http://www.w3.org/1999/xlink" width="6px" height="10px" xmlns="http://www.w3.org/2000/svg">
  <g transform="matrix(1 0 0 1 -596 -101 )">
    <path d="M 5.89690721649484 0.601202404809619  C 5.96563573883162 0.668002672010687  6 0.744822979291916  6 0.831663326653307  C 6 0.918503674014696  5.96563573883162 0.995323981295925  5.89690721649484 1.06212424849699  L 1.84536082474227 5  L 5.89690721649484 8.93787575150301  C 5.96563573883162 9.00467601870407  6 9.0814963259853  6 9.16833667334669  C 6 9.25517702070808  5.96563573883162 9.33199732798931  5.89690721649484 9.39879759519038  L 5.38144329896907 9.8997995991984  C 5.3127147766323 9.96659986639947  5.23367697594502 10  5.14432989690722 10  C 5.05498281786942 10  4.97594501718213 9.96659986639947  4.90721649484536 9.8997995991984  L 0.103092783505155 5.23046092184369  C 0.0343642611683849 5.16366065464262  0 5.08684034736139  0 5  C 0 4.91315965263861  0.0343642611683849 4.83633934535738  0.103092783505155 4.76953907815631  L 4.90721649484536 0.100200400801603  C 4.97594501718213 0.0334001336005341  5.05498281786942 0  5.14432989690722 0  C 5.23367697594502 0  5.3127147766323 0.0334001336005341  5.38144329896907 0.100200400801603  L 5.89690721649484 0.601202404809619  Z " fill-rule="nonzero" fill="#aaaaaa" stroke="none" transform="matrix(1 0 0 1 596 101 )" />
  </g>
</svg>