<?xml version="1.0" encoding="utf-8"?>
<svg version="1.1" xmlns:xlink="http://www.w3.org/1999/xlink" width="8px" height="13px" xmlns="http://www.w3.org/2000/svg">
  <g transform="matrix(1 0 0 1 -205 -106 )">
    <path d="M 7.86254295532646 0.781563126252504  C 7.95418098510882 0.868403473613893  8 0.968269873079491  8 1.0811623246493  C 8 1.1940547762191  7.95418098510882 1.2939211756847  7.86254295532646 1.38076152304609  L 2.46048109965636 6.5  L 7.86254295532646 11.6192384769539  C 7.95418098510882 11.7060788243153  8 11.8059452237809  8 11.9188376753507  C 8 12.0317301269205  7.95418098510882 12.1315965263861  7.86254295532646 12.2184368737475  L 7.17525773195876 12.8697394789579  C 7.0836197021764 12.9565798263193  6.97823596792669 13  6.85910652920962 13  C 6.73997709049256 13  6.63459335624284 12.9565798263193  6.54295532646048 12.8697394789579  L 0.13745704467354 6.79959919839679  C 0.0458190148911799 6.7127588510354  0 6.61289245156981  0 6.5  C 0 6.38710754843019  0.0458190148911799 6.2872411489646  0.13745704467354 6.20040080160321  L 6.54295532646048 0.130260521042084  C 6.63459335624284 0.0434201736806943  6.73997709049256 0  6.85910652920962 0  C 6.97823596792669 0  7.0836197021764 0.0434201736806943  7.17525773195876 0.130260521042084  L 7.86254295532646 0.781563126252504  Z " fill-rule="nonzero" fill="#aaaaaa" stroke="none" transform="matrix(1 0 0 1 205 106 )" />
  </g>
</svg>